<?xml version="1.0" encoding="utf-8"?>
<!DOCTYPE svg PUBLIC "-//W3C//DTD SVG 1.1//EN" "http://www.w3.org/Graphics/SVG/1.1/DTD/svg11.dtd">
<svg version="1.1" 
   xmlns="http://www.w3.org/2000/svg" 
   xmlns:xlink="http://www.w3.org/1999/xlink" viewBox="-6315.0726378946165 -2064.972797819536 8867.768839668013 4359.986346170106">
   <style>
   path {
    vector-effect: non-scaling-stroke;
   }
   </style>
   <rect id="background" fill="#ffffff" x="-6315.0726378946165" y="-2064.972797819536" width="8867.768839668013" height="4359.986346170106"></rect>

   <g id="roads" fill="none" stroke="#222222" stroke-width="1">
      <path d="M1866.3137428004993,-2030.7374051027 L1836.6228659948101,-1977.9182446142659 1807.8327236542245,-1915.9896318074316 1785.8370104252826,-1864.8476398484781 1763.3853698746534,-1797.815988807939 1717.2366287722252,-1623.325206078589 1694.5959451859817,-1539.4562190948054 1670.3539558841148,-1457.9023787183687 1645.80060158181,-1406.4067586576566 1611.1612453085836,-1349.258960051462 1531.2071613267763,-1246.0466228211299 1496.31204094633,-1195.3680939264596 1471.6697252156446,-1151.0542710823938 1453.0434260959737,-1113.7133206278086 1427.4114144718042,-1039.0615250105038 1410.6533053534804,-966.8136175125837 1402.9136610623682,-899.0316281327978 1401.0788315969985,-838.6528011998162 1408.9074373164913,-768.1569203464314 1420.6614660742925,-657.1477235751227 1424.0308801837964,-575.0376419648528 1416.9250860718312,-494.7677405523136 1398.0652632020647,-409.5289882980287 1351.3605131709483,-222.67689120210707 1222.9558111210354,179.1555713498965 1162.095073758741,322.6090650251135 1042.0305056429934,530.5245781494305 965.2345523773693,709.2449687728658 902.0274573353818,935.6035466603935 870.2793474926148,1106.010473927483 869.1784498132765,1280.8194251116365 876.5622483895859,1411.3382084183395" />
      <path d="M896.2672048315872,1402.0684668309987 L891.4410473282915,1274.5010845689103 896.9121751888888,1106.6630840944126 927.6928294952959,942.6488923933357 990.4217568585882,718.0110674062744 1065.8944088732824,542.3760869577527 1185.9923375247745,334.4163300683722 1248.1318954234011,187.9221526561305 1419.4493666092167,-406.19125230330974 1437.4195751927327,-493.18044746108353 1446.0821943056071,-574.1475636120886 1445.6596275197808,-657.2515669427812 1428.1231059007114,-771.3612673692405 1421.0061916102422,-840.4181718453765 1423.0523044688161,-905.1288722520694 1432.5489369750721,-978.6521491892636 1446.9940489492146,-1036.925234131515 1471.1025961079868,-1108.179691906087 1485.3809054034064,-1141.2628278685734 1514.126567029627,-1185.9920019069687 1549.3997734816512,-1233.8071995712817 1629.3649776423117,-1339.6750166667625 1664.0599348082906,-1399.8344478346407 1688.0684003600618,-1452.6355999745429 1715.524121271097,-1534.0113623086363 1737.8423196788644,-1618.9336754465476 1780.799569529132,-1792.1336016049609 1802.6284800792346,-1861.7022752650082 1826.370061345282,-1915.8115913253278 1842.6944834990427,-1949.0458709970117" />
      <path d="M1158.6478183994768,2206.811942450702 L997.9834782921243,1844.2622786089778 930.4951144971419,1636.9387197550386 896.2672048315872,1402.0684668309987" />
      <path d="M1094.328705499298,-350.08779205568135 L1099.1548630025936,-346.3940537655726 1112.3322746184422,-340.29716354236007 1118.5706948011648,-335.7430412489921 1128.634456415195,-325.8634217903018 1133.9610219544265,-313.06146751344204 1144.3250283898087,-295.2900690557435 1153.0098878600402,-285.5736672412604 1160.5160084007075,-271.8668819703162 1180.6212912712945,-256.72120362892747 1184.424392345245,-239.33559635654092 1180.2765657354612,-223.59660524874926 1177.4409201976378,-212.50070615392178 1182.0001934150932,-200.27743104379624 1192.7311657436658,-175.22273239400238 1199.725758069777,-151.71083352994174 1215.4052098658867,-129.89006267488003 1227.192599159549,-111.68881849944592 1235.3659304149915,-94.8226596293971" />
      <path d="M1128.634456415195,-325.8634217903018 L1138.4424539217725,-331.8564630150795 1153.3657335744938,-347.031928146258 1160.9830559011316,-368.0521378442645" />
      <path d="M1021.7361797366757,-372.36892618145794 L1015.6423218754353,-369.32788952067494 1006.5904965122463,-368.5416704453528 964.4227793411119,-375.78082211036235 882.8785098226508,-389.7992767766118 878.6862024982693,-400.2129991715774 911.9800171634415,-453.57237742934376 1008.9146138351643,-400.95471772085875 1026.4956161683658,-386.0313515085727" />
      <path d="M911.9800171634415,-453.57237742934376 L930.0836678898195,-475.9575924901292 954.5703011202859,-501.68062754999846 966.046325413743,-514.1564726522192 978.1561998861143,-526.7658450081944 990.955525430385,-540.7696849647909 1004.0217352604959,-555.5449449699372 1011.7057786585065,-569.014780077152 1032.767396886833,-618.3400530004874 1042.6309952862794,-642.283299157396 1050.5485624343855,-647.2084352439269 1051.693940828205,-653.394528420642 1049.469905112288,-658.898226166144 1078.1043649528874,-722.747283953242 1119.8939960520947,-760.754289410077 1182.0335539508378,-849.408215623349 1219.831040940364,-888.1574772847816 1227.5039641598705,-892.9937283974141 1238.3238979170565,-897.1030602380633 1244.439996135421,-898.4382225861773 1249.132711495622,-898.5123982755467 1255.9827415001346,-897.4145981036127" />
      <path d="M1235.3659304149915,-94.8226596293971 L1255.3822518568486,-102.16544284205884 1274.964886334259,-110.54660628270358 1287.8086925928947,-125.08386282715946 1297.0162004559534,-141.2825459772721 1299.507120457827,-156.11652881465852 1301.853478137753,-178.17470356449485 1306.4572320695734,-201.938846164383 1313.696468324284,-212.24852677527815 1322.714933151845,-221.01547249779105 1334.8136874455959,-229.32256887387484" />
      <path d="M1709.6081862672,25.242176790721714 L1735.4848418204347,18.86367730796337 1761.6283816591604,5.765489535406232 1789.4065877491375,-10.848319003358483 1820.1427613410633,-32.96549611352384 1834.1986670648912,-45.173724964261055 1845.3410860006697,-61.09043053910136 1852.213356362423,-78.99490153416991 1860.7091727965744,-103.36698971968144 1868.9603453021264,-114.86327915079892 1871.6291881611105,-118.57176253478974 1900.152446215856,-140.92653067130595 1930.1435678431299,-170.55001606047153 1931.055422486621,-171.45489110890776 1948.3917808908736,-186.89711613301188 1975.2358919803519,-216.38723619934171 1987.3568866313435,-222.78072987869382 2039.4215627375524,-256.5728621361777 2053.2550648894394,-265.5475265039131 2115.605906181154,-309.7979361237958 2128.427472082549,-320.5824281601235 2156.3391203155043,-344.03540234360844 2200.730873202323,-387.3071055645123 2240.2742282287218,-432.9970136079937 2242.298100729822,-435.32601797487587 2252.8956309156492,-450.9763485668227 2268.741885390482,-474.3999714627862 2271.1549641420133,-479.2063457192853 2281.9526575421914,-500.7163833556697 2275.8254391452065,-510.6258513517678 2261.3692069926765,-533.1892139865085 2255.3976710959105,-546.391995084472 2248.447559484048,-562.9770873421803 2246.7128116257954,-578.7611372787505 2246.067841268028,-603.253168256022 2248.9479675202165,-622.3454246046022 2246.8907344831387,-639.7465583626181 2238.9175664418144,-664.1052315160632 2239.0954892993905,-685.0667943563312 2241.0192801933736,-695.4363317042589" />
      <path d="M1131.0920158810914,-606.5019644461572 L1099.3216656812,-600.3159014126286 1045.7557654670672,-589.8129545664415 1011.7057786585065,-569.014780077152" />
      <path d="M1045.7557654670672,-589.8129545664415 L1032.767396886833,-618.3400530004874" />
      <path d="M769.0968426036416,228.98109388072044 L804.4701306630159,272.93236039578915 810.9643149530748,274.23769362829626 818.0033879935509,271.98302702698857 858.4363573062001,241.767476959154 872.2698594583198,235.35945415310562 887.1264180395519,230.96876939758658 901.09336233465,230.19743267726153 917.517866095528,234.21728297229856 929.160693067708,242.80581358540803 936.9892987872008,252.0321712717414 938.1346771810204,263.9878563415259 932.2743430697592,278.03502565808594 930.2171100326814,290.82134358305484 934.7986236072611,299.89932233747095 1012.6065131233772,365.6847459245473 1036.73730063939,385.19037136249244" />
      <path d="M1235.3659304149915,-94.8226596293971 L1232.0076364839915,-74.69307862222195 1230.6287343403092,-41.61360802408308 1227.1369982664473,-19.303571861237288 1221.465707191499,-7.9260666742920876 1206.9093934317352,7.590039978735149 1197.5017223540926,19.768534468486905 1184.73575734545,29.33628121111542 1167.9998885842506,31.783842803910375 1159.5819134000922,28.01608106214553" />
      <path d="M1008.9146138351643,-400.95471772085875 L1038.1495633191662,-455.14482953678817 1038.4386879621306,-472.54566105175763 1030.2875970638124,-489.6646683625877 989.7767865010537,-516.1591365691274 978.1561998861143,-526.7658450081944" />
      <path d="M1036.9041033183457,-228.55119533836842 L1028.1636429552455,-233.83213848248124 982.3040264960146,-246.33730472438037 945.2738318282645,-254.61475466005504 918.0182741318131,-257.40357452072203 893.6762032227125,-261.6906449282542 880.6878346424783,-266.7935962714255 874.0490880308207,-277.97856303676963 870.4906308857026,-287.4576100334525 867.4770624908851,-306.3267266759649 863.5516394525766,-317.9864351628348" />
      <path d="M741.0183916920796,-377.1752494908869 L759.7447724187514,-340.62351766601205 788.5793954737019,-318.9803295424208 831.292001395137,-304.01258773636073 863.5516394525766,-317.9864351628348 932.5078668200877,-358.67685163300484 964.4227793411119,-375.78082211036235" />
      <path d="M1112.6547597972676,-234.6035124445334 L1134.4947905262234,-252.1226184470579 1160.5160084007075,-271.8668819703162" />
      <path d="M1114.8231946201995,-38.06832621619105 L1135.206481955247,-15.224282274022698 1148.550696249702,-5.745503328740597 1156.1124176833546,-5.463661842979491 1163.8409417958464,-6.828368055634201" />
      <path d="M938.4682825382333,-120.06999023072422 L963.522044876474,-114.10674871131778 995.7372022191994,-106.9419634109363 1051.838503149571,-93.05742571409792" />
      <path d="M1033.3790067087393,-662.1322063673288 L993.6354884678731,-684.6662545129657 950.3446332603926,-706.0729073714465 937.4674664661288,-723.1329905083403 931.6738534264732,-749.5094220470637 939.7248627176741,-774.9364891452715 981.2364893524209,-841.2340995660052 979.790866137133,-858.7839797893539 968.0479575578356,-873.7377491323277 806.9721708432771,-909.4607365988195 787.6564206519397,-907.5321666114032 683.7049912967486,-876.9569664029405 549.3398735285737,-775.7524113114923 529.0677879791474,-766.7327664578333 416.74286415427923,-732.3009433336556 396.8155041409191,-724.9576794542372" />
      <path d="M396.8155041409191,-724.9576794542372 L390.6438050295692,-736.4843810200691 377.0549468062818,-760.2944067120552 363.821934297448,-791.4032953837886 361.0307694741059,-810.8519649840891 357.00526482856367,-831.4726415751502 351.46741589624435,-844.1269347649068 339.91355035291053,-853.4730236493051 310.81204301211983,-857.1966266706586 284.6129022802925,-857.9235453559086 272.7365515581332,-865.7267983797938 264.941306374385,-871.2009473415092 263.5512840518495,-883.944303451106 269.8675454846816,-910.7959006596357 274.5713810236193,-923.8805182669312 274.59362138086,-942.8547289092094 268.01047566195484,-959.1289643924683 261.2716474434128,-980.877438724041 259.6147408350371,-995.772056591697" />
      <path d="M1266.9361174004152,-945.8069354891777 L1271.5176309747621,-945.1838566381484 1277.3890852642944,-948.2547456538305 1282.2374831248308,-953.6992710977793 1301.642194744898,-978.0735739953816 1332.8454158372479,-1016.0667522912845 1341.6525972718373,-1030.3086695661768 1346.3675529891625,-1043.3637789078057 1349.90376977704,-1057.8579380884767 1351.9276422784897,-1106.4439430683851 1355.7085029951995,-1144.7788449665532 1356.8872419245308,-1165.2370458850637 1354.941210673307,-1168.3673473233357 1351.0491481707431,-1170.459160699509" />
      <path d="M-21.94818078156095,-697.5132074803114 L-25.528878283919767,-687.959582619369 -32.679153110133484,-664.1052315160632 -23.13803988939617,-656.9400368500501 -8.826370058464818,-655.7532556392252 12.657814955920912,-662.9184494214132 40.091295509948395,-658.1416529743001 52.023247125092894,-653.3648588992655 102.13077180134133,-630.697371491231 133.15607003623154,-615.1950957244262 173.7224814919755,-597.289627415128 204.73665954836179,-585.3625568151474 219.1150504508987,-585.4070607814938" />
      <path d="M259.6147408350371,-995.772056591697 L252.46446600882336,-1012.476605639793 223.83000616822392,-1026.7926942808554 198.77624383021612,-1020.8288910379633 171.3316430975683,-1010.0881203832105 139.11648575461004,-994.5852336054668 100.94091269327328,-977.8807156039402 75.88715035526548,-950.4355225078762 41.29227479652036,-915.8398554548621 26.969484786852263,-889.5964842624962 1.915722448611632,-862.151542882435 -21.94818078156095,-837.0951214898378 -30.299434894346632,-806.0750951273367 -37.46082989894785,-769.0915214484558 -36.259850612375885,-732.1080898689106 -21.94818078156095,-697.5132074803114" />
      <path d="M404.555148431682,-1913.022290932946 L411.1494143289747,-1852.147494818084 415.5085243319627,-1824.2843848839402 415.51964451069944,-1796.421355606988 408.74745575594716,-1760.53187499661 398.47241074906196,-1709.8506371276453 394.3579446749063,-1687.1361525477841 393.96873842482455,-1660.5939520709217 391.455578065943,-1638.8736144099385 385.2171578829875,-1611.0259581198916 374.552906626137,-1580.3891784017906 374.9198725190945,-1554.4110459517688 380.04627484397497,-1527.9582281354815 386.82958377711475,-1478.1238686721772 389.70971002895385,-1439.6541153751314 390.7216462797951,-1406.822164461948 383.7604144891957,-1376.705290351063 372.5290341246873,-1348.3984817722812 363.4327280471334,-1321.1896048299968 366.6019789422862,-1271.6530301673338 360.8417264382588,-1235.6616566358134 355.1370748274494,-1200.0709789665416 340.0358723172685,-1138.088028723374 334.4201821348397,-1113.5649659316987 333.664009991684,-1069.1773426812142 331.81806034746114,-1033.4685978163034 329.7052264173981,-1026.9707183120772 306.2194092590362,-1014.9244327591732 259.6147408350371,-995.772056591697" />
      <path d="M219.1150504508987,-585.4070607814938 L231.0136415301822,-607.7629130380228 262.194622265175,-657.1625583423302 274.28225638042204,-673.273128118366 285.1021901377244,-680.6015177639201 303.1391197926132,-684.9332810724154 328.45976641669404,-690.3183183129877 353.68033143354114,-697.5428771357983 380.54668288014363,-711.7101488914341 396.8155041409191,-724.9576794542372" />
      <path d="M1394.4178446282167,-238.31204195693135 L1403.2583865985507,-237.8521842220798 1412.799499819288,-232.43773186486214 1419.927534288261,-225.10968338605016 1435.9517116203206,-194.6998252272606 1445.692988055409,-183.6781296208501 1455.2341012760298,-160.98208016622812 1455.5232259189943,-136.32800080254674 1456.4017200268572,-130.9581074109301 1460.3271430651657,-126.84910261724144 1465.4869059257908,-125.75139044132084 1491.2968404073035,-125.89972991403192 1507.7547047038097,-124.01581874210387 1544.0620877639158,-112.90520049352199 1556.4499667007476,-106.49694586917758 1572.6854274258949,-86.44150988385081 1594.658900297829,-59.22136589512229 1625.717559068231,-29.435051289387047 1641.7973372935085,-13.637068246491253 1663.103599450551,-0.2866802541539073 1689.8809894683072,15.066243048757315 1709.6081862672,25.242176790721714" />
      <path d="M1378.0600619388279,-915.0980972312391 L1453.1323875244707,-977.0202705245465" />
      <path d="M1084.476227278472,428.2657722523436 L1065.4384815513622,411.5488609764725 1036.73730063939,385.19037136249244" />
      <path d="M1453.1323875244707,-977.0202705245465 L1468.923041106551,-989.1555203115568 1527.6820647171699,-1031.5400029830635 1540.5814718687907,-1060.5876491190866 1555.4157900927821,-1087.6177642503753 1581.681651896215,-1118.876065579243 1618.9453703139443,-1142.3458203431219" />
      <path d="M1141.1891380306333,483.66721836011857 L1084.476227278472,428.2657722523436" />
      <path d="M1334.8136874455959,-229.32256887387484 L1394.4178446282167,-238.31204195693135" />
      <path d="M1645.5003567602253,-1733.277323690243 L1641.0189247928793,-1727.0163543764502 1608.5146428068401,-1706.7349959649146 1596.2824463702273,-1695.1032778741792 1588.8319267224288,-1677.5073637021706 1580.3694708239054,-1643.5915524391457 1560.7868363466114,-1584.7510190531611 1548.8548847315833,-1565.063407030888 1541.7046099053696,-1542.0970499254763 1529.072087039589,-1510.8670463077724 1518.9304841757985,-1483.7170542450622 1512.169415599783,-1467.9611923275515 1506.9874123819172,-1456.804514744319 1504.4520116660278,-1454.935179071501 1501.1715589851374,-1454.4159192265943 1495.4891477314522,-1455.9291908498853" />
      <path d="M1089.7471919247182,-353.60352017823607 L1107.372674972401,-395.7181859854609 1118.303810515441,-420.40259847510606 1134.594872133457,-455.1744984462857 1151.708826966351,-490.79209105391055 1163.4850960813928,-518.0727935908362 1170.5019287645118,-537.3132268134505 1174.6719957315363,-551.0500592561439 1178.4750968054868,-565.4841386564076 1244.9626445284812,-848.651627458632" />
      <path d="M1033.3790067087393,-662.1322063673288 L1042.6309952862794,-642.283299157396" />
      <path d="M1049.469905112288,-658.898226166144 L1033.3790067087393,-662.1322063673288" />
      <path d="M2094.3218843812356,716.7206269931048 L2055.5013409623643,670.8283002562821 2052.8213779249927,666.6306395409629 2002.3691277126782,587.4532193485647 1981.518792877323,566.6130445245653 1865.4130083355121,496.9575847936794 1830.328844919335,463.5239717634395 1795.856291324948,491.0540537536144 1770.1241980933119,513.1848600031808 1753.7886557611637,522.707617550157 1739.1656209299108,525.5258773220703 1728.9684171730187,530.5097452132031 1682.497190891998,540.8631291976199 1654.0851346229902,542.1090944278985 1627.1631822837517,541.1301217628643" />
      <path d="M1036.73730063939,385.19037136249244 L1035.2805572457146,370.84669475164264 1035.24719670997,358.07531630899757 1040.651603499311,345.17042193003 1050.2038368986687,333.22967091947794 1061.9022647634847,322.8612303864211 1078.593652810203,312.73011104017496 1094.7846328211017,301.7831501895562 1107.8286022940883,288.07718165498227 1125.9211328417296,251.88383761700243 1130.6916894521564,213.70267883874476 1125.9211328417296,180.29774906300008 1121.150576231419,130.1901370678097 1135.4622460625833,90.82180662453175 1153.3657335744938,49.06509330868721 1159.5819134000922,28.01608106214553 1163.8409417958464,-6.828368055634201 1165.4422475111205,-23.35319559276104 1165.0975219752872,-46.07858822867274 1159.4707116141217,-67.69149509258568 1150.7302512513706,-104.85038113035262 1134.0277430259157,-160.96724616363645 1122.3404353393707,-201.47899016551673 1119.5937512306264,-214.97799802478403 1112.6547597972676,-234.6035124445334" />
      <path d="M1112.6547597972676,-234.6035124445334 L1092.516116391169,-263.5152464034036 1081.7740238838596,-298.1085691275075 1082.3745135270292,-309.29357227589935 1087.9234826379688,-328.0885604247451 1091.5153003190644,-337.0781257338822 1093.2722885343246,-343.1156767895445 1094.328705499298,-350.08779205568135" />
      <path d="M1450.4413043085951,734.193472173065 L1405.1043362425407,680.2025748230517 1401.6682010616641,662.3439805991948" />
      <path d="M2160.920633890084,889.9792461255565 L2152.4581779914442,881.8807618636638" />
      <path d="M2232.5123435804853,992.4407993853092 L2219.212610000279,969.7919656597078 2208.726281600655,947.0689171906561 2196.4940851635765,926.096029823646 2184.2618887269637,908.9646770320833 2160.920633890084,889.9792461255565" />
      <path d="M2155.238222636166,793.8500951174647 L2190.9117555172415,750.4945105221123 2257.0100969899213,705.1956514818594 2306.706175058731,688.0787383234128 2331.3484907893,643.8030462320894 2366.288091884111,575.2606100849807 2398.52548958431,512.0872206790373 2420.9993704922963,465.77859350293875 2429.684229962295,427.4054527711123 2484.8403157134308,361.546284949407 2493.636376969167,339.77112765423954 2515.1205619835528,276.373693077825 2537.994769320241,218.86470916029066 2542.3538793229964,200.23392003122717 2546.1013795044273,184.1989524345845" />
      <path d="M1352.6504538861336,1966.8241601884365 L1352.394689778681,1952.0230864472687 1331.2218697647331,1916.8593220310286 1311.2277886798838,1882.2441708175465 1295.7818606337532,1844.1732931341976 1286.5076316992054,1779.1691832840443 1261.3871482894756,1753.7191316196695 1217.684846474789,1727.6016135690734 1183.4346964517608,1741.6021544868127 1142.7904437459074,1755.8548028795049 1115.1234394417843,1747.1934665180743 1043.1870042153168,1683.0489093428478 1024.7942288457416,1682.633636831306 995.5370390048483,1674.9065985772759 975.9210439916933,1652.3631885834038" />
      <path d="M1709.6081862672,25.242176790721714 L1709.196739659994,36.84213478676975 1676.6590971382102,166.1911031473428 1672.5001503496896,207.79897410795093 1673.5343269575387,239.08263458963484 1679.7838673187653,250.08900020923465 1688.346404824406,257.1496809627861 1714.9347518064314,275.1870267735794 1727.1891886004014,292.5271735768765 1750.2301986158127,347.29157242458314 1762.139909873833,378.0704518267885 1774.8391538107535,405.82327510695904 1794.0325820378494,426.90112752187997 1830.328844919335,463.5239717634395" />
      <path d="M1975.2358919803519,-216.38723619934171 L1893.4247381758178,-338.53188461251557 1886.8527126356494,-347.10609959065914 1870.82853530359,-368.00763488188386 1825.6250093803974,-405.34569270256907 1803.117767936783,-438.7082673627883 1797.1351118613966,-447.59409487154335 1803.028806508286,-466.27067726198584 1877.7119258437306,-537.0165351824835 1882.6159245970193,-554.6993722515181 1878.6905015585944,-576.3134210724384 1823.6678579506697,-633.3082835515961 1782.3897550660186,-656.8955325530842 1770.6023657723563,-675.5576862357557 1757.8252805852098,-715.8490730524063 1720.494841095875,-746.3050822969526 1709.6860275173094,-785.6176575478166 1711.320693768328,-822.4381094863638 1708.4628078736132,-839.750594672747 1701.479335726006,-850.1054635941982 1687.779275716981,-862.3443989530206 1674.4461816010298,-865.3707562787458 1658.0995190900285,-890.3975810259581 1641.9863803293556,-916.6557895634323 1641.7862171148881,-934.2058072974905 1642.0975821149768,-969.2911035139114 1634.7137835386675,-984.452738320455 1618.689606206608,-997.2555855279788 1582.1598195749102,-1014.0491490503773 1538.1461527600186,-1021.1552682314068 1527.6820647171699,-1031.5400029830635" />
      <path d="M1556.227563129156,-825.9836801812053 L1581.7261326104635,-832.7039495613426 1636.0482049681013,-836.9764411402866 1674.4461816010298,-865.3707562787458" />
      <path d="M1687.779275716981,-862.3443989530206 L1701.9130226908019,-869.0646937191486 1720.094514667173,-875.2509294683114 1751.5646200452466,-878.292125958018 1779.3761866709683,-870.0438099028543 1802.906484543928,-857.1669565215707 1809.0893038336653,-847.0049357721582 1861.4431045829551,-753.1588102802634 1894.1141892474843,-713.1936340481043 1914.4752362252912,-683.8651748700067 1927.3079223054228,-679.1625420292839 1943.565623387578,-684.2953842999414 2023.9756346913055,-749.3017333280295 2027.078164514969,-750.0731485933065 2030.8145445174305,-751.0077479407191 2062.896259717294,-731.7668875902891 2115.9283913599793,-716.3682930562645 2149.2889270965243,-729.6306649129838 2165.1129412142327,-729.6306649129838 2185.640790870646,-716.7985039399937 2203.5998792755418,-699.2637174101546 2223.282595359953,-692.8402376137674 2241.0192801933736,-695.4363317042589" />
      <path d="M1468.923041106551,-989.1555203115568 L1492.4755793366348,-975.2697100825608 1518.7636814970756,-967.3180158091709 1540.0588234754978,-966.4130659457296 1547.9986309808446,-939.5019727842882 1549.611056874739,-916.878317062743 1543.5394393706229,-909.7129342397675 1535.2104256150778,-901.3904155474156 1538.112792224274,-871.6905055269599 1576.1326827852754,-883.2767232581973 1584.3393745764624,-885.2201235052198" />
      <path d="M1341.4301937000128,-1154.1697323760018 L1336.081387803657,-1156.9588128654286 1329.1423963704146,-1156.3653914155439 1321.0135458292207,-1153.0125609198585 1314.941928325221,-1147.4195675132796 1280.2247308022343,-1080.2148876311257 1278.1452574079158,-1071.7290320573375 1278.8903093725676,-1063.984953599982 1282.0929208032321,-1056.9678150946274 1286.5632325920742,-1052.2798353470862 1292.390206167358,-1050.4847551016137" />
      <path d="M1991.0043052051915,893.0050516827032 L1957.2323228612076,902.557098288089 1925.9178999832366,921.2458577100188 1897.1166374637978,930.8423732565716" />
      <path d="M2094.3218843812356,716.7206269931048 L2062.7961781101767,779.2993715936318 2041.5788773817476,795.466840820387" />
      <path d="M2052.8213779249927,666.6306395409629 L2040.578061309643,680.3064037589356 2035.017972020083,751.5179596887901 2034.0060357694747,789.9046411663294 2041.5788773817476,795.466840820387" />
      <path d="M2542.3538793229964,200.23392003122717 L2470.650967846741,165.06375725753605 2458.7857373030856,131.6438251612708" />
      <path d="M1627.1631822837517,541.1301217628643 L1602.6987894100603,542.5392490550876 1561.70981116849,544.2747002802789 1421.740123396623,644.9600015822798" />
      <path d="M1401.6682010616641,662.3439805991948 L1421.740123396623,644.9600015822798" />
      <path d="M1728.9684171730187,530.5097452132031 L1761.2280552303419,568.6154832085595 1707.1172662656754,615.2647702824324 1633.1235980020138,658.3094763206318 1618.1335972775705,663.6937592281029 1579.6355390376411,696.3850431367755" />
      <path d="M1618.1335972775705,663.6937592281029 L1682.497190891998,540.8631291976199" />
      <path d="M1187.6158835974056,528.0771433496848 L1143.6800580323907,621.1978907529265 1137.2081140995724,671.362278166227 1109.685672116815,786.2855015359819 1129.924397130264,809.7505548056215 1158.2474919706583,823.500278159976 1208.4217377185123,850.2135464698076 1243.7616652420256,880.7683321749792" />
      <path d="M1305.2673729615053,1391.152407697402 L1393.5615908778273,1352.960934941657 1435.3178614411736,1325.522307600826 1490.1959427279653,1265.868978811428 1539.1136082963785,1249.1683536199853 1572.518624747172,1214.565633913502 1620.2464312076336,1153.7250596666709 1776.5294209547574,998.6258350871503 1799.2034650769783,978.3501756321639 1897.1166374637978,930.8423732565716" />
      <path d="M975.9210439916933,1652.3631885834038 L994.9365493615624,1631.273187498562 1024.0269365238491,1581.870198220946 1067.9405217316234,1534.1280713230371 1121.7288255175808,1489.1146966619417 1167.844206084148,1461.1128602260724 1246.3415466721635,1441.9060450363904 1271.0394632959506,1428.7208037823439 1301.2307481374592,1405.1237746449187 1305.2673729615053,1391.152407697402" />
      <path d="M769.0968426036416,228.98109388072044 L896.7008917960338,132.01466392539442 912.5360260922462,117.34427150152624 925.0128664578078,104.03854741714895 948.6210055806441,75.63217414170504 960.3639141600579,63.468583976849914 973.1298791684676,51.97249377705157 995.6148802548414,33.4600512906909 1012.4953113376396,18.937845929525793 1022.6257940229261,7.99055100325495 1030.843605992617,-2.8825875809416175 1039.7842295700684,-18.472880023531616 1046.2561735028867,-32.63915242254734 1050.4151202915236,-44.71387645136565 1053.2730061862385,-62.36614153627306 1053.6622124364367,-80.28544878214598 1051.838503149571,-93.05742571409792" />
      <path d="M1036.0812101033516,-372.6507784053683 L1037.1376270684414,-374.8017562003806 1037.582434211392,-377.45710186008364 1037.2043481399305,-380.1272825906053 1036.0367293891031,-382.54528022836894 1034.1796595663764,-384.5034137265757 1031.8221817075973,-385.80883628036827 1029.1755792059703,-386.3280384801328 1026.4956161683658,-386.0313515085727 1024.7386279528728,-385.3341371472925 1023.1818029518472,-384.2808985374868 1021.8696218795376,-382.93097315728664 1020.8910461646738,-381.3288641627878 1020.2683161643799,-379.5487433709204 1020.0459125927882,-377.6796168908477 1020.2238354498986,-375.7956564417109 1020.79096455744,-374.00070234388113 1021.7361797366757,-372.36892618145794 1023.4042065234389,-370.66297866776586 1025.472559739137,-369.446564104408 1027.7855568835512,-368.8531912053004 1030.1763952780748,-368.897694170475 1032.4671520652482,-369.59490733686835 1034.491024566465,-370.87065921816975 1036.0812101033516,-372.6507784053683" />
      <path d="M1495.4446670170873,700.1970413411036 L1611.7950954877306,803.0462597077712" />
      <path d="M488.4346554520307,-1966.4048930574208 L525.5649317267817,-1959.6541585335508 543.7464237032691,-1955.7669245414436 556.0787017471157,-1950.4405263131484 567.109918897273,-1943.3040475128219 579.964845334529,-1931.4791660159826 589.3169155194191,-1920.8412361023948 596.8452764172107,-1910.5890720998868 604.7628435654333,-1897.9927234612405 612.1688824989833,-1882.4142232127488 624.2342762569897,-1855.9308306649327 628.5266651883721,-1847.8745525963604 631.6403151905397,-1843.7203050293028 635.7881418002071,-1840.8568425746635 640.3362948390422,-1840.738149846904 645.6628603783902,-1841.9102405812591 651.1117478820961,-1844.1060565132648 656.6940775287803,-1847.1030493425205 666.301911820774,-1854.6252087140456 673.6968305758201,-1858.5272384751588 680.4578991518356,-1859.6844947542995" />
      <path d="M680.4578991518356,-1859.6844947542995 L717.0655270332936,-1850.8567099906504 721.3467957861722,-1849.0466441996396 723.2928270373959,-1846.9695199383423 723.8154754306888,-1844.2395858783275 722.8925006085774,-1840.070503294468" />
      <path d="M-1735.1896137109725,-1216.4940056260675 L-1665.988742414862,-1235.5874783471227 -1652.1663604411297,-1245.9576087752357 -1518.0458866016706,-1346.5440029855818 -1356.9812200654997,-1477.7678039185703 -1178.33555119636,-1615.9070811802521 -1050.787102896953,-1589.3799133319408 -977.0936794549925,-1594.735784173943 -890.5119690400315,-1606.871812781319 -844.1853050802602,-1624.8830130295828 -830.7410091785714,-1630.1202134983614 -800.8944498727797,-1644.3482030928135 -770.1582762810867,-1660.8610057057813 -693.7515292656608,-1694.9845869475976 -670.6993990717456,-1703.8122287467122 -649.4487378075719,-1709.004962997511 -631.5897310100263,-1709.7022732393816 -617.8007095720386,-1708.7972535742447 -599.7192992029013,-1704.9546300405636 -565.8138747159392,-1690.0440783435479 -528.5167957624653,-1676.246274967678 -409.61984639731236,-1640.5352778555825 -365.7618620824069,-1628.1024815374985 -323.27165973279625,-1619.0523654390126 -300.88674025342334,-1616.574712187983 -277.85685041651595,-1616.1147885993123 -257.47356308146846,-1618.177026791498 -237.25707842514385,-1622.449867039919 -217.38531930488534,-1627.4200134687126 -197.5135601842776,-1633.5919003644958 -129.50254799623508,-1664.0804862482473 -97.9768417251762,-1679.6734694419429 -70.39879884966649,-1690.9787689689547 13.881034599500708,-1725.2359846998006 95.66994804702699,-1761.18467956502" />
      <path d="M95.66994804702699,-1761.18467956502 L95.30298215406947,-1802.9345911154523 97.01548965496477,-1823.3200081866235 100.26258180011064,-1843.8686709841713 108.90296055586077,-1882.903832837008 114.57425163104199,-1904.5357010839507 123.8151200300781,-1932.4138800846413 140.72891164838802,-1974.0310032451525 149.78073701180983,-1999.0162003533915 152.44957987067755,-2011.0192070649937 153.7061600498855,-2024.2091785566881 153.63943897851277,-2047.1025015655905" />
      <path d="M95.66994804702699,-1761.18467956502 L184.47569417778868,-1801.7476685978472 261.1048447645735,-1839.8034446816891 337.9786392801907,-1880.0848686769605 383.60473198920954,-1902.7849719412625 404.555148431682,-1913.022290932946 410.804688793025,-1916.3308760663494 422.1027902291389,-1922.9628864582628 475.81325276521966,-1957.6066839434206 488.4346554520307,-1966.4048930574208 511.2532618958503,-1982.2951022358611 558.4917804987635,-2016.8797658458352 585.3914924811106,-2036.434770069085 593.6426649866626,-2043.3339274730533 600.8819012416061,-2049.7731455154717 609.5778808901086,-2058.482417325489" />
      <path d="M877.474103033077,-1927.9331880742684 L881.4551269643707,-1924.342701275833 960.6307984458981,-1853.0970377949998 964.4783802339807,-1846.7618075376377 965.6015182705596,-1840.2188691878691 964.7007838058053,-1832.7560673896223 959.7300639809109,-1823.7057588528842 937.1227409302955,-1798.1720654023811" />
      <path d="M877.474103033077,-1927.9331880742684 L914.6154994865647,-1968.9123099418357 935.8439203936141,-1995.232808265835" />
      <path d="M935.8439203936141,-1995.232808265835 L879.2644517843146,-2047.354729020968" />
      <path d="M881.4551269643707,-1924.342701275833 L840.0658222938655,-1877.711004761979 832.8377062176587,-1866.18293644581 829.446051751147,-1855.1148169236258 832.8377062176587,-1841.094228029251 845.0476622972637,-1819.1657712180167 856.3457637333777,-1806.7327441545203 868.9671664204216,-1799.3589874794707 871.3246442790842,-1796.4065190861002 872.1141769581009,-1790.5015850206837 881.2104830355383,-1774.6413654647768" />
      <path d="M879.2644517843146,-2047.354729020968 L890.6403944704216,-2060.4112179409713 910.7123168053804,-2064.3430050034076 M980.380235601915,-2053.319168349728 L991.6116159665398,-2039.891766604036 1014.6192654462066,-2012.3841976532713 1061.8466638704995,-1968.3188384324312 1082.30779245554,-1964.7728469157591 1091.3596178188454,-1960.039914663881 1098.8434980023885,-1951.3900789832696 1101.2009758611675,-1923.8382528247312 1102.780041219201,-1887.6367271533236 1107.1057906864444,-1873.4677244732156 1117.7366814078996,-1859.2987426463515 1125.5986476630205,-1842.370174959302 1120.883691945579,-1801.4361014645547 1120.4833655168768,-1769.1667026700452 1103.5695738984505,-1722.3280482674018" />
      <path d="M1225.6135338011663,-2064.3430050034076 L1240.9705004186835,-2039.5505179632455 1259.0741511450615,-2003.333720206283 1281.892757588881,-1971.8499944629148 1292.5236483103363,-1936.034043367952 1291.7341156312032,-1849.8478208165616 1285.0508883052971,-1790.8131517991424" />
      <path d="M963.0994780902984,-2018.0667148940265 L981.1252875665668,-2012.6809347635135 994.1470166825457,-1999.6541842659935 1019.8457493782043,-1964.7134997863322 1045.8780874314252,-1941.4197806026787 1054.7853504730156,-1941.4197806026787 1082.30779245554,-1964.7728469157591" />
      <path d="M935.8439203936141,-1995.232808265835 L940.3142321822233,-2000.7669470012188 949.9109462958295,-2009.327805957757 963.0994780902984,-2018.0667148940265 991.6116159665398,-2039.891766604036" />
      <path d="M1082.30779245554,-1964.7728469157591 L1093.3278894271934,-1982.265428618528 1096.441539429361,-1995.2476450940594 1110.4640846174443,-2009.7877483358607 1111.509381403681,-2025.366454754956 1115.1345596202882,-2031.5979443872347 1129.6797532016644,-2032.6365263834596 1145.259123390424,-2046.657394315116" />
      <path d="M1627.1631822837517,541.1301217628643 L1618.2003183490597,556.6898422222584 1571.195323496242,643.7733807088807 1495.4446670170873,700.1970413411036 1450.4413043085951,734.193472173065" />
      <path d="M1119.5937512306264,-214.97799802478403 L1131.2810589169385,-213.019899004139 1150.074160714983,-206.15172151010484 1162.5176405449165,-204.7424848349765 1172.2033160870196,-211.8331725243479 1177.4409201976378,-212.50070615392178" />
      <path d="M1089.7471919247182,-353.60352017823607 L1037.1376270684414,-374.8017562003806" />
      <path d="M83.0374251814792,1088.4938072673976 L92.7564612593269,1084.6374665498734 135.7025909308577,1076.287000399083 180.00538238906302,1065.8896958315745 186.19932185742073,1064.9552727574483 192.8936693619471,1064.74762317352 197.9088699009735,1064.7624552864581 203.1242336544674,1065.4447324732319 211.38652633852325,1067.7140453746542 217.9807922359323,1069.953693532385 233.0152736742748,1076.5984744010493 239.1091315356316,1078.185508438386 245.5588351112092,1078.318997268565 252.78695118776523,1077.8888665810227 261.5496519077569,1075.0262721991166 306.1415680089267,1054.3503061449155 322.6105524841696,1044.3831100901589 335.187474456965,1036.7742168745026 360.3969192953082,1019.2574242530391 369.8935518015642,1013.0427374187857 389.7764311005594,1003.6687869187444 418.4887321910355,988.1839499576017 446.2669382811291,972.6694235894829 455.20756185858045,968.2049137586728 465.06004007940646,964.9121510284021 475.4907675862778,962.8356334120035 486.9334313439904,961.8715357966721 538.7868240571115,961.2782449051738 544.3246729893144,961.0557608148083 549.8069210286485,960.2993148574606 555.3002892467193,958.9050809824839 560.1375669285189,956.7544006742537 564.974844610435,954.2329128049314 570.8129383642226,950.3468537339941 577.2626419399166,945.1407187022269 623.289061077754,906.6508296448737 637.3672071585897,894.5179541064426" />
      <path d="M637.3672071585897,894.5179541064426 L626.4805523299146,881.8065998898819 623.88955072104,879.2109303940088 619.4748398252996,875.8884724201635 615.4493351798737,873.7526059746742 610.9679032125277,872.7736670281738 606.2974282093346,872.4176892051473 601.4935110631632,872.5215160725638 596.7563149887137,873.0703152054921 590.8403799847001,874.5238911332563 582.9450531938346,877.979841189459 554.5441171033308,892.4414213085547 547.082477276912,895.0370872365311 539.1649101288058,897.0691223582253 531.9367940523662,898.0925559438765 524.0192269044928,898.6561859920621 504.81467849877663,898.9973304737359 471.80998847656883,897.9738969868049 463.3364123995416,896.8466367833316 455.5300470374059,895.0370872365311 448.41313274682034,892.2041032472625 442.41935649269726,888.9261469077319 427.72960059007164,879.329589583911 420.62380647833925,875.5028299028054 416.4759798682062,874.078918935731 412.31703307980206,873.6932763420045 407.8800818269374,874.078918935731 403.7433753955411,875.384170663543 395.7257266402012,879.2109303940088 322.3547883768333,922.818085023202 315.21563372935634,925.2802518093958 307.68727283144835,925.7993832807988 300.8038822909584,924.1084978142753 295.9999651449034,921.3941810531542 292.4971088928869,917.7454261658713 290.1618713912321,913.7258612560108 289.25001674774103,908.5345387794077 289.38345889071934,902.9575720848516 292.3747869282961,893.731838173233 312.4911899775034,852.571904739365 315.21563372935634,845.8231421085075 315.5937198010506,842.6193322548643 315.60483997967094,839.3413590379059 314.8041871219175,836.137547031045 313.925693014171,833.7495197933167 312.1464644415537,831.0203450825065 310.155952475965,828.4246618999168 306.7420576522127,825.6954856785014 302.76103372091893,823.500278159976 297.89039550337475,821.7648772671819 293.019757285947,820.7711005434394 287.0593415675685,819.9998110784218 281.33244959951844,819.5993338329718 274.76042405946646,819.5993338329718 267.96599494770635,819.7328262487426 261.38284922903404,820.3854558197781 254.73298243898898,821.5720549216494 218.8148056291975,832.1772779356688 203.30215651157778,836.9978299876675 192.40438150439877,839.9791548214853 184.2199300704524,840.8987672682852 175.77971452916972,840.6317830169573 167.99558952380903,839.7270030034706 157.3535786239663,837.5169662181288 128.14086949732155,830.2490564398468 121.34644038556144,829.6705899164081 115.65290895337239,829.700254865922 110.22626180679072,830.6495332419872 105.06649894616567,832.2366078244522 90.10985875758342,838.1250971974805 67.1911707065301,847.1432301150635 59.72953088011127,850.272876243107 54.536407483858056,851.7116231722757 48.73167426569853,852.3939154557884 43.22718586900737,851.6077960841358 39.90225247410126,849.3829295812175 34.431124613271095,841.2547462573275" />
      <path d="M901.460328227724,1334.3323402516544 L924.3011750286678,1318.8925302382559 940.3587128964718,1310.0973151950166 987.2191454278072,1277.5416010739282 1035.4918406385696,1234.9001233531162 1070.0978363760514,1114.4795705955476 1086.5557006727904,1057.212906674482 1104.4480680063134,1002.3338881600648 1119.9607171237003,968.916862308979 1243.7616652420256,880.7683321749792 1450.4413043085951,734.193472173065" />
      <path d="M863.9519658812787,1358.8342741979286 L882.1112175005255,1346.2570180715993 901.460328227724,1334.3323402516544" />
      <path d="M1348.5693483476061,1988.6846222802997 L1352.6504538861336,1966.8241601884365" />
      <path d="M1089.1800628174096,2022.7803185656667 L1054.9632733303588,2066.8272116035223" />
      <path d="M1159.5819134000922,2161.83137307968 L1132.404196953401,2084.7721843384206 1126.3770601636497,2060.954304170795 1109.418787830975,2017.4709488293156 1102.5131569333607,2005.739900845103 1089.1800628174096,2022.7803185656667" />
      <path d="M1102.5131569333607,2005.739900845103 L1099.7664728246164,1997.6868469901383 1066.0723317306256,1933.4104814622551 1053.4175685078371,1902.9480208624154 1023.7044513451401,1836.594693750143 995.9040048979223,1751.1236971672624 973.8304504188709,1670.3534272583202 975.9210439916933,1652.3631885834038" />
      <path d="M1357.9658992468612,-85.35863619949669 L1367.518132645986,-77.30383988562971 1375.8693867586553,-76.11713013239205 1384.420804085792,-84.54277254547924 1390.092095161206,-92.89425284601748 1392.271650162642,-105.04322203528136 1395.8523476650007,-118.76460371352732 1403.6031121345004,-124.13449029903859 1421.1952346462058,-130.46858689188957 1441.4784403739031,-129.50437988340855 1451.1863562734798,-129.56371569540352 1456.4017200268572,-130.9581074109301" />
      <path d="M930.2171100326814,290.82134358305484 L920.9540012764046,295.3010008363053 896.9010550103849,330.98985137604177 903.9623684079852,339.38546366244555" />
      <path d="M314.2259378358722,627.857814123854 L308.5768871176988,622.0285273240879 294.1095347866649,612.4910352090374 233.11535528162494,574.6821282384917 119.32256788434461,493.41250000614673 113.80695930914953,492.0626975055784 107.54629876918625,492.967510195449 99.33960697811563,498.6337122954428 1.3597135198069736,579.3099820269272" />
      <path d="M374.15258019720204,620.738074044697 L390.53260324394796,606.4392468230799" />
      <path d="M391.7335825304035,638.7302403682843 L443.76489810086787,683.2729444103315 498.7986618876457,727.2666349662468" />
      <path d="M391.7335825304035,638.7302403682843 L390.5103628867073,632.8416290422902 387.14094877720345,626.2262074854225 387.5079146703938,615.0719438064843 390.53260324394796,606.4392468230799" />
      <path d="M1036.9041033183457,-228.55119533836842 L1076.9701067378046,-324.276156546548 1082.1854704912985,-336.0842294888571 1089.7471919247182,-353.60352017823607" />
      <path d="M1051.838503149571,-93.05742571409792 L1045.700164574082,-112.8755326392129 1037.9160395688377,-134.54792531393468 1031.9778642077,-154.02493584994227 1029.042137062992,-167.73155333288014 1027.729955990566,-178.9015709757805 1027.385230454849,-193.36476048268378 1029.1866993844742,-204.89082552678883 1033.3678865302354,-218.87936316151172 1036.9041033183457,-228.55119533836842" />
      <path d="M390.53260324394796,606.4392468230799 L410.1597184356069,587.4383864961565 451.1486966771772,544.170869871974 492.0153529543895,501.6596408477053 647.1640844865469,337.11597908474505 684.9504512974527,299.33565723802894 701.8420025587548,282.90035513136536 720.3904604283161,266.7468584794551 769.0968426036416,228.98109388072044" />
      <path d="M1089.7471919247182,-353.60352017823607 L1094.328705499298,-350.08779205568135" />
      <path d="M1255.9827415001346,-897.4145981036127 L1266.9361174004152,-945.8069354891777" />
      <path d="M1266.9361174004152,-945.8069354891777 L1287.5084477713099,-1034.2993772448972 1292.390206167358,-1050.4847551016137" />
      <path d="M1251.4123481042916,-877.0904823523015 L1255.9827415001346,-897.4145981036127" />
      <path d="M1248.009573459276,-861.9141815695912 L1251.4123481042916,-877.0904823523015" />
      <path d="M1244.9626445284812,-848.651627458632 L1248.009573459276,-861.9141815695912" />
      <path d="M1258.473661501659,-863.0713180312887 L1253.0692547124345,-863.3383495407179 1248.009573459276,-861.9141815695912" />
      <path d="M1248.009573459276,-861.9141815695912 L1251.423468282912,-857.1521214470267 1255.1709684639936,-854.4521382469684" />
      <path d="M1267.1696411505109,-857.3449774179608 L1263.6667848981451,-860.4751787306741 1258.473661501659,-863.0713180312887 1254.8596034635557,-868.5603005709127 1251.4123481042916,-877.0904823523015" />
      <path d="M1244.9626445284812,-848.651627458632 L1250.8007382822689,-852.4197338139638 1255.1709684639936,-854.4521382469684 1261.553950968082,-854.7043344499543 1267.1696411505109,-857.3449774179608" />
      <path d="M1267.1696411505109,-857.3449774179608 L1279.5575200873427,-861.0092416154221 1307.524769213167,-873.3668716354296 1357.2208472822094,-898.6310793850571 1378.0600619388279,-915.0980972312391" />
      <path d="M1292.390206167358,-1050.4847551016137 L1298.8621501001762,-1068.8509638560936 1308.4143834994175,-1092.5727990763262 1318.5115056490758,-1114.2622330375016 1341.4301937000128,-1154.1697323760018 1351.0491481707431,-1170.459160699509" />
      <path d="M1351.0491481707431,-1170.459160699509 L1368.2965451464988,-1201.7770734764636 1381.9298840842675,-1226.1816758606583" />
      <path d="M1381.9298840842675,-1226.1816758606583 L1406.8390841009095,-1269.11612350028 1431.4702796529746,-1310.314977050759 1444.7700132332975,-1335.4468093831092 1455.6900285977172,-1358.2198073929176 1466.1763569976902,-1381.6159663507715 1495.4891477314522,-1455.9291908498853" />
      <path d="M1495.4891477314522,-1455.9291908498853 L1513.926403815276,-1505.5705664344132 1525.3579473943682,-1539.441382967867 1532.0411747201579,-1561.7549426481128 1536.2223618658027,-1579.7957308487967 1539.9365015110234,-1597.2134318025783 1545.9413979436504,-1630.461447622627 1548.22103455232,-1649.1403252836317 1549.6555375889875,-1668.0121114077047 1549.488734910381,-1683.4419011445716 1547.6316650877707,-1699.2574612945318 1544.2733711570036,-1716.3341412534937 1536.6449286517454,-1748.84074609261" />
      <path d="M1257.4506050726632,-1719.4052763143554 L1290.1105695586884,-1702.5511365616694 1298.0170165281743,-1704.4947022320703 1306.8130777842598,-1734.1675092261285 1317.254925469635,-1738.2030180487782 1332.3116472653346,-1735.0725312810391 1342.9091774510453,-1723.4407789427787 1366.4728358595166,-1666.1724073607475 1378.5493497962598,-1649.3183608297259 1400.1780971320113,-1639.9269903087988 1485.0250596888363,-1639.9269903087988 1523.3563152500428,-1595.9226811630651 1536.2223618658027,-1579.7957308487967" />
      <path d="M1202.2722789642867,-1589.8101632362232 L1271.917957403697,-1525.836664848961" />
      <path d="M1216.7396312953206,-1454.1043633325025 L1249.8444029245293,-1481.5361565640196 1271.917957403697,-1525.836664848961 1279.379597230116,-1535.0795628502965 1295.036808668985,-1541.340407310985 1339.473042270285,-1508.3894209051505 1346.778999596485,-1460.0684350375086 1344.6995262021665,-1437.6957672191784 1289.0652727723354,-1370.5929116411135 1261.1758648966206,-1294.974799953401 1264.912244899082,-1277.824688937515 1303.8328699249541,-1244.8746046470478 1320.0905710072257,-1218.763857039623 1329.9319290495478,-1219.0754053164274 1374.2236003292492,-1230.0982865076512 1381.9298840842675,-1226.1816758606583" />
      <path d="M1360.3567376412684,-551.2429090943187 L1405.6937057073228,-610.9078678870574 1404.2036017775536,-640.7256512232125 1386.8450030160602,-734.1256340136752 1378.2268646175507,-808.1074897730723 1362.7809365715366,-826.7847716500983 1307.524769213167,-873.3668716354296" />
      <path d="M741.0183916920796,-377.1752494908869 L733.100824543857,-404.7968207206577 730.1094965061639,-449.003367099911 606.3419089236995,-650.5759243229404" />
      <path d="M849.4401328359963,-515.1207181885839 L824.1528467476601,-477.5152137633413 788.5237945809495,-426.2918576784432 755.8971906305524,-392.05409890506417 741.0183916920796,-377.1752494908869" />
      <path d="M824.1528467476601,-477.5152137633413 L812.7101829899475,-488.1960521545261 796.8305679792538,-503.0009005246684" />
      <path d="M887.1264180395519,230.96876939758658 L898.6358028687537,217.9747041305527 962.7658727330854,164.88575526326895 1009.5929447285598,113.29470525216311 1049.258621719433,83.4643313838169 1059.7004694048082,84.05767636746168 1067.451233874308,91.5189864449203 1062.3804324422963,158.9226865582168 1074.3123840574408,223.64106807950884 1065.961129944655,248.10132864210755 1034.3464622449828,269.5800265148282 1005.1226329398341,291.652008661069" />
      <path d="M219.1150504508987,-585.4070607814938 L223.16279545344878,-576.9068067613989 226.3098059912445,-530.0739536732435 227.28838170622475,-497.00775274727494 231.62525135208853,-485.4071654314175 266.4536506610457,-435.22217700630426 330.016591417836,-346.6759052295238 354.6255466126604,-314.76740481797606 365.23419697687495,-301.01607532426715" />
      <path d="M503.9695449267747,-480.48211212735623 L498.26489331561606,-485.006633894518 486.65542687952984,-482.4551000446081 463.82570025720634,-468.08048303984106 454.96291792963166,-468.481013876386 447.69032113905996,-467.1014077421278 442.37487577844877,-464.14934797026217 439.41690827638377,-457.8595351949334 438.2381693472853,-446.8375382879749 437.4597568466561,-438.96045266930014 435.09115880937316,-433.05635129101574 431.3547788069118,-428.9323831303045 424.2712250521872,-426.1731823971495 419.15594290581066,-424.0073587205261 415.2193996887654,-420.076241645962 411.48301968630403,-412.9854005705565 408.9253786132904,-405.3160239458084 400.65196575049777,-378.9405355071649 396.32621628348716,-370.48496677167714 392.5898362810258,-363.79468870162964 385.8954887764994,-355.531979188323 379.8016309153754,-337.41931402590126 354.6255466126604,-314.76740481797606 234.85010313999373,-222.17253191955388 151.87133058463223,-164.80925338249654 106.82348716154229,-134.34024985972792 80.19065946526825,-116.83619213383645 51.70076194626745,-98.01194862276316 32.36277139745653,-88.01390202436596 23.19974424864631,-83.51923460513353 13.703111742273904,-80.34478429425508 2.2048470916925,-79.00973541289568 -7.625390772009268,-78.84656278043985 -19.29045810108073,-80.50795694813132 -27.78627453558147,-82.85170991905034 -36.7824990056688,-88.5182542745024 -45.94552615459543,-95.3418461382389 -51.950422587338835,-98.01194862276316 -60.279436342651024,-97.67076881974936 -71.11049027845729,-93.17609689198434 -84.59926689474378,-92.6717443978414 -104.59334797959309,-89.00777265802026 -118.59365281031933,-84.51310477871448 -129.09110138879623,-79.35091455094516 -141.92378746869508,-71.01427986193448 -149.25198515225202,-64.35387761890888 -157.08059087162837,-54.86021646205336 -163.7526980190305,-42.85964880604297 -172.248514453182,-23.36802938580513 -177.9086853498593,-4.039620784111321 -191.90899018070195,16.297442603856325 -234.56599520903546,77.60504768136889 -280.89265916880686,143.92599744629115 -286.8864354226971,151.75809912756085 -309.5493593661813,186.4239726634696 -318.04517580056563,195.57621711865067 -341.5421131377807,213.24284267239273 -380.02905119920615,239.57213629037142 -419.1831999750575,267.5626922920346 -448.3403082091827,287.8991819359362 -458.17054607276805,293.22433879133314 -470.66962679533754,294.0550036644563 -483.6691155540757,289.39734613802284 -497.8362230634084,279.5628580413759 -542.005572378519,243.9331503715366 -574.0761674001114,223.95256966724992 -611.0285208176356,205.12895569764078 -622.1820599321509,200.01141835656017 -636.5938113704324,198.3797392072156 -673.0791172875324,200.94592537358403 -690.6378792636096,198.21657127700746" />
      <path d="M-177.9086853498593,-4.039620784111321 L-165.68760909175035,-16.574156091548502 -155.2235210489016,-33.306673623621464 -149.88583533116616,-44.69904262945056 -140.3558422891656,-60.497076644562185 -131.75994424766395,-67.0091376490891 -124.3205447786022,-69.79790316149592 -115.95817048707977,-70.95494441036135 -92.01642600691412,-83.96425108797848 -71.11049027845729,-93.17609689198434" />
      <path d="M-115.95817048707977,-70.95494441036135 L-118.28228781023063,-63.52318189293146 -121.65170191938523,-54.9195518149063 -125.99969174375292,-50.73641031142324 -132.916442819871,-48.64484024327248 -139.42174728843383,-48.64484024327248 -149.88583533116616,-44.69904262945056" />
      <path d="M2152.4581779914442,881.8807618636638 L2139.0250022682594,869.6885254541412 2131.0184736914234,855.1379165444523 2131.5188817273593,830.9165177699178 2155.238222636166,793.8500951174647" />
      <path d="M2150.7901512045646,780.1893247347325 L2137.935224767658,780.2189898369834 2126.6927242242964,786.878803207539 2109.267404391314,812.6428930656984 2077.0856075838674,850.5991899995133 2045.115094169858,875.2803438249975 2152.4581779914442,881.8807618636638" />
      <path d="M1311.2277886798838,1882.2441708175465 L1350.8045042419108,1853.0718366503716 1369.0082365755225,1840.5545497499406 1392.8610196271911,1795.2163257999346 1403.002622491098,1747.7867089807987 1406.5833199934568,1724.5167458821088 1398.2320658806711,1704.8358600335196 1371.3879547913093,1659.2003731075674 1362.147086392506,1630.5761191658676 1358.866633711732,1612.9714191667736 1367.2178878244013,1580.461223027669 1380.6399433690822,1546.1563213150948 1361.54659674922,1514.2391564408317 1331.4220329790842,1455.195088820532 1301.2307481374592,1405.1237746449187" />
      <path d="M2155.238222636166,793.8500951174647 L2150.7901512045646,780.1893247347325 2094.3218843812356,716.7206269931048" />
      <path d="M2045.115094169858,875.2803438249975 L2003.703549142112,889.4156155735254 1991.0043052051915,893.0050516827032" />
      <path d="M1070.0978363760514,1114.4795705955476 L1111.9986692612292,1150.1505527347326 1207.4431620034156,1257.5186698371544 1305.2673729615053,1391.152407697402" />
      <path d="M975.9210439916933,1652.3631885834038 L970.650079345447,1646.312053755857 958.6625268374337,1566.8015686366707 980.1578320303233,1512.177588715218 998.9398136498639,1464.449947759509 997.4497097205603,1435.0835377546027 974.0973347047111,1388.5865387422964 939.7915837891633,1339.4641064004973 924.3011750286678,1318.8925302382559" />
      <path d="M2041.5788773817476,795.466840820387 L2035.5183800563682,811.6342829000205 1991.0043052051915,893.0050516827032" />
      <path d="M383.804895203677,-169.55613700579852 L392.6343169952743,-188.2470140196383 397.8274403915275,-214.20662563480437 411.3273371863179,-231.87403563037515 429.5088291626889,-248.48825429193676 438.338250954519,-271.0806708568707 455.73021025175694,-308.4628554172814 473.91170222801156,-322.22902979515493 492.6047224191716,-333.6514092553407" />
      <path d="M398.861616999493,39.57153464015573 L419.24490433442406,17.81048280093819 435.8584511311492,-8.741923832334578 452.99464632140007,-20.38643811363727 481.7736684833653,-37.51947517413646 516.7243897566805,-55.676077597774565 544.124509774847,-66.29711254034191 588.6719451617682,-84.79494857415557 622.5884898271179,-102.95164016634226 649.310278952471,-121.80556121841073 693.16826326726,-153.66892007086426 721.9472854293417,-186.89711613301188 806.9165699505247,-249.30413184128702" />
      <path d="M806.9165699505247,-249.30413184128702 L813.9778833478922,-257.07722321897745 823.5745974613819,-275.3974157087505 833.1824317536084,-294.60769547894597" />
      <path d="M1868.9603453021264,-114.86327915079892 L1857.60664297326,-126.56725758407265 1843.86210224987,-142.79561117850244 1827.4709590246202,-162.6879905210808" />
      <path d="M1930.1435678431299,-170.55001606047153 L1912.0621574737597,-195.88654959760606 1908.881786400103,-199.387387345545 1906.5576690774178,-202.6360472375527 1901.2199833594495,-209.2965451553464 1897.9395306786755,-215.8680431591347 1897.3168006783817,-219.23538135085255 1897.7282472855877,-222.26153649762273 1899.1293897865107,-224.0119600072503 1900.7084551448934,-225.42119950521737" />
      <path d="M1897.9395306786755,-215.8680431591347 L1883.8947451337008,-237.3774923859164" />
      <path d="M1961.9250382214086,-189.96776325348765 L1961.9139180429047,-177.8780230022967 1962.4254462574609,-172.6712806513533 1965.6725384026067,-166.18881619535387 1972.7560921573313,-156.45771068986505 1978.6497868039878,-151.592161629349 1985.644379130099,-145.95524810347706 1991.5269535982516,-141.96490868739784 1997.0870428878115,-138.1822464503348 2003.3143428919138,-136.04615549277514 2016.6363168294774,-132.45633703563362 2036.4413548782468,-134.6814309619367 2040.8560657741036,-135.71980830468237 2041.901362560573,-135.95715171657503 2046.9388034567237,-138.61243149545044 2058.292505785823,-138.70143529772758 2079.3763643712737,-139.9771565804258 2092.5204154513776,-141.50505555048585 2111.98072796443,-142.54343362897635 2122.3113738643005,-142.70660733804107" />
      <path d="M2040.8560657741036,-135.71980830468237 L2046.2604725634446,-131.86297873873264 2056.835762391798,-128.19899208284914 2070.413500436698,-123.67463801801205 2085.2700590180466,-118.28991774935275 2087.405133305234,-115.21929349284619 2088.939717949019,-112.99420406203717" />
      <path d="M1991.5269535982516,-141.96490868739784 L1992.9058557421668,-136.4763404391706 1995.8082223512465,-132.04098622780293 2001.3571914620697,-126.65626127552241 2010.4868580752518,-122.13190793525428 2016.803119508084,-117.60755671840161 2019.2829193311045,-112.40084696561098 2022.7857755834702,-106.85295990295708 2027.7342550510075,-94.89682913199067 2031.4039139820961,-88.66659317258745 2037.8091368435416,-78.09003517497331 2041.7345598818501,-72.63117107842118 2042.668654882582,-67.4986549410969 2043.269144525635,-59.65154740680009 2043.947475419147,-53.67350947484374 2043.780672740424,-49.327196386642754 2044.8037291695364,-42.14762548357248 2047.1056061353302,-32.25347352400422 2049.4186032797443,-27.387987239286304 2052.999300782103,-19.526078614406288 2053.933395782835,-13.384894082322717 2053.0882622107165,-6.902536880224943" />
      <path d="M2027.078164514969,-750.0731485933065 L2024.6873261204455,-758.8257492203265 2020.1836537960917,-766.8662808770314 2016.4583939721342,-771.3761023068801 2011.5543952188455,-779.8023532796651 2004.6932450355962,-788.6291557857767 1999.1998768176418,-792.9461327269673 1995.2744537793333,-794.9043497154489 1989.5920425257646,-794.9043497154489 1986.6451952022035,-793.3466770770028 1984.688043772243,-791.7741697253659" />
      <path d="M818.1034696007846,-382.9606418441981 L852.5093021235662,-367.47359934914857" />
      <path d="M854.8667799823452,-366.6132088303566 L856.8350515908096,-359.96743637509644 865.2419065964641,-327.9995548678562" />
      <path d="M1509.5005727409152,-431.21688326168805 L1571.1063620676287,-387.44061472453177" />
      <path d="M1048.546930290293,-356.481374533847 L1043.987657072721,-349.55375751666725 1032.3003493866418,-335.2831788538024" />
      <path d="M808.2398712012218,-445.8584651462734 L820.9279949597549,-438.4115787707269 832.7821053246735,-430.5048312144354" />
      <path d="M989.3653398936149,-220.5407814932987 L996.2042497196235,-239.0240797875449" />
      <path d="M926.6586528875632,-539.0340384403244 L952.2906645116163,-507.644109159708" />
      <path d="M926.6586528875632,-539.0340384403244 L925.6689569938462,-539.5235797362402 922.8889123493573,-539.820271444507 919.0190902039176,-538.7373467599973 913.547962342971,-535.3550622295588" />
      <path d="M771.2319168909453,-399.73829933349043 L786.4332010081271,-390.55582887865603" />
      <path d="M1618.9453703139443,-1142.3458203431219 L1668.3745640969137,-1222.9178348770365 1701.6350182261085,-1273.626180256717 1738.6318523579976,-1330.0465754121542 1756.3351766556734,-1346.5588388135657 1777.763760777074,-1353.1756207803264 1796.8348670396954,-1355.9202514020726" />
      <path d="M1641.9863803293556,-916.6557895634323 L1614.408337453613,-906.9832659987733 1596.89405619225,-894.4327360987663 1584.3393745764624,-885.2201235052198 1575.9436397494283,-876.1558707626536 1564.8345813491615,-847.8356991093606 1556.227563129156,-825.9836801812053" />
      <path d="M1540.0588234754978,-966.4130659457296 L1543.11687258468,-970.5520996265113 1550.7564352683257,-972.391670727171 1559.2967324169585,-972.4213412301615 1593.3022385109216,-971.2641916228458" />
      <path d="M1556.227563129156,-825.9836801812053 L1549.3219322316581,-808.463529757224 1522.0107736419886,-733.6805874770507 1509.6562552410178,-717.8072743527591 1494.0212841589237,-709.6332700513303 1479.409369506524,-697.9582523452118 1478.197270041448,-687.4848685916513 1485.136261474574,-675.1868163757026 1497.7910246971296,-665.0398225160316 1518.4189559610095,-653.6912236334756 1535.032502757851,-636.4829162172973 1552.3466208050959,-601.4878411060199 1563.5891213484574,-577.8710585869849 1561.3317250967957,-550.5308481706306 1553.0805525913602,-515.8772801430896 1535.0102624007268,-470.82486130762845 1509.5005727409152,-431.21688326168805 1478.931201827596,-388.5086880354211 1444.3363262688508,-339.58511822111905 1430.0135362591827,-308.5666950196028 1420.6503458957886,-241.48654435947537 1412.799499819288,-232.43773186486214" />
      <path d="M1403.0582233841997,642.3939337600023 L1407.1949298153631,599.3639893960208 1409.4078453525435,556.9420014526695 1403.9923183846986,544.7493535503745 1390.748185697128,532.8681817986071 1377.3150099740596,530.1834206124768 1363.5704692505533,528.9226208981127 1333.2012615518179,533.77299065236 1270.283291152562,540.6109695509076 1205.797375573893,541.5899422690272 1187.6158835974056,528.0771433496848 1160.1935232219985,504.84873118344694 1141.1891380306333,483.66721836011857" />
      <path d="M1421.740123396623,644.9600015822798 L1403.0582233841997,642.3939337600023" />
      <path d="M1401.6682010616641,662.3439805991948 L1403.0582233841997,642.3939337600023" />
      <path d="M1602.6987894100603,542.5392490550876 L1609.637780843419,545.2091738861054 1613.8523285248084,547.8642650675029 1618.2003183490597,556.6898422222584" />
      <path d="M637.3672071585897,894.5179541064426 L698.9173955926672,843.1977980043739 748.4355508041335,806.2204177025706 764.5375693864189,796.6682755248621 787.8009829733055,771.022803443484 800.333424231736,757.3026703251526 825.9876762130298,749.5452242381871 847.4607410487952,748.3586162598804 874.8942216029391,749.5452242381871 904.1291710865917,748.3586162598804 936.3443284296663,715.5488476147875 967.9589961292222,667.8172575971112 998.9731741856085,590.2714601680636 1022.2477079512319,512.1317195715383 1046.100491002784,451.8800286957994 1065.4384815513622,411.5488609764725" />
      <path d="M1696.508615901228,-1327.153594176285 L1708.4294473378686,-1337.5980023304 1718.571050201659,-1354.2883087759838 1725.4322003849084,-1368.6049058064818 1732.5935953897424,-1387.1052446020767 1741.2450943241129,-1399.0333086745813 1755.857008976629,-1415.1451201811433 1769.2790645214263,-1431.2421227032319 1773.7493763100356,-1440.796485315077 1774.6501107750228,-1459.282126866281 1775.2506004183087,-1473.3021595813334 1779.1204225637484,-1509.3982742866501 1777.3300738123944,-1528.477491946891 1779.720912206918,-1542.7943480750546 1788.0721663194709,-1548.4617519322783 1804.1741849018726,-1554.425882103853 1823.8680211650208,-1557.7195078097284 1842.0606333200121,-1561.2950216792524 1860.5534902964719,-1568.742776828818 1868.6044995876728,-1576.798821256496 1872.2185576257762,-1583.8015025500208" />
      <path d="M1696.508615901228,-1327.153594176285 L1698.5880892955465,-1297.9271145360544 1701.6350182261085,-1273.626180256717" />
   </g>
</svg>